<mxfile host="app.diagrams.net" modified="2023-02-20T14:37:20.642Z" agent="5.0 (Windows NT 10.0; Win64; x64) AppleWebKit/537.36 (KHTML, like Gecko) Chrome/110.0.0.0 Safari/537.36" etag="U17brMac_2s8IHjb7dIB" version="20.8.20" type="github">
  <diagram name="Página-1" id="-uGcjaJdSItCc1cdp7EN">
    <mxGraphModel dx="704" dy="381" grid="1" gridSize="10" guides="1" tooltips="1" connect="1" arrows="1" fold="1" page="1" pageScale="1" pageWidth="827" pageHeight="1169" math="0" shadow="0">
      <root>
        <mxCell id="0" />
        <mxCell id="1" parent="0" />
        <mxCell id="qDUP6opVr65xL8gxLoUw-4" style="edgeStyle=orthogonalEdgeStyle;rounded=0;orthogonalLoop=1;jettySize=auto;html=1;exitX=0.5;exitY=1;exitDx=0;exitDy=0;entryX=0.5;entryY=0;entryDx=0;entryDy=0;" edge="1" parent="1" source="qDUP6opVr65xL8gxLoUw-1" target="qDUP6opVr65xL8gxLoUw-2">
          <mxGeometry relative="1" as="geometry" />
        </mxCell>
        <mxCell id="qDUP6opVr65xL8gxLoUw-11" style="edgeStyle=orthogonalEdgeStyle;rounded=0;orthogonalLoop=1;jettySize=auto;html=1;" edge="1" parent="1" source="qDUP6opVr65xL8gxLoUw-1" target="qDUP6opVr65xL8gxLoUw-10">
          <mxGeometry relative="1" as="geometry" />
        </mxCell>
        <mxCell id="qDUP6opVr65xL8gxLoUw-1" value="ConnectionFactory" style="rounded=1;whiteSpace=wrap;html=1;fillColor=#f8cecc;strokeColor=#b85450;" vertex="1" parent="1">
          <mxGeometry x="130" y="120" width="120" height="60" as="geometry" />
        </mxCell>
        <mxCell id="qDUP6opVr65xL8gxLoUw-15" style="edgeStyle=orthogonalEdgeStyle;rounded=0;orthogonalLoop=1;jettySize=auto;html=1;entryX=0;entryY=0.5;entryDx=0;entryDy=0;fontColor=#0000FF;" edge="1" parent="1" source="qDUP6opVr65xL8gxLoUw-2" target="qDUP6opVr65xL8gxLoUw-12">
          <mxGeometry relative="1" as="geometry" />
        </mxCell>
        <mxCell id="qDUP6opVr65xL8gxLoUw-19" style="edgeStyle=orthogonalEdgeStyle;rounded=0;orthogonalLoop=1;jettySize=auto;html=1;fontColor=#0000FF;fillColor=#fff2cc;strokeColor=#000000;" edge="1" parent="1" source="qDUP6opVr65xL8gxLoUw-2" target="qDUP6opVr65xL8gxLoUw-18">
          <mxGeometry relative="1" as="geometry" />
        </mxCell>
        <mxCell id="qDUP6opVr65xL8gxLoUw-2" value="DataSource" style="rounded=1;whiteSpace=wrap;html=1;" vertex="1" parent="1">
          <mxGeometry x="50" y="220" width="90" height="40" as="geometry" />
        </mxCell>
        <mxCell id="qDUP6opVr65xL8gxLoUw-8" value="" style="endArrow=none;dashed=1;html=1;dashPattern=1 3;strokeWidth=2;rounded=0;exitX=1;exitY=0.5;exitDx=0;exitDy=0;entryX=0;entryY=0.5;entryDx=0;entryDy=0;" edge="1" parent="1" source="qDUP6opVr65xL8gxLoUw-2">
          <mxGeometry width="50" height="50" relative="1" as="geometry">
            <mxPoint x="150" y="250" as="sourcePoint" />
            <mxPoint x="145" y="240" as="targetPoint" />
          </mxGeometry>
        </mxCell>
        <mxCell id="qDUP6opVr65xL8gxLoUw-10" value="ComboPooledDataSource" style="rounded=1;whiteSpace=wrap;html=1;" vertex="1" parent="1">
          <mxGeometry x="240" y="220" width="140" height="40" as="geometry" />
        </mxCell>
        <mxCell id="qDUP6opVr65xL8gxLoUw-16" style="edgeStyle=orthogonalEdgeStyle;rounded=0;orthogonalLoop=1;jettySize=auto;html=1;fontColor=#0000FF;" edge="1" parent="1" source="qDUP6opVr65xL8gxLoUw-12" target="qDUP6opVr65xL8gxLoUw-10">
          <mxGeometry relative="1" as="geometry" />
        </mxCell>
        <mxCell id="qDUP6opVr65xL8gxLoUw-12" value="guarda" style="text;html=1;strokeColor=#d6b656;fillColor=#fff2cc;align=center;verticalAlign=middle;whiteSpace=wrap;rounded=0;" vertex="1" parent="1">
          <mxGeometry x="140" y="300" width="60" height="30" as="geometry" />
        </mxCell>
        <mxCell id="qDUP6opVr65xL8gxLoUw-29" style="edgeStyle=orthogonalEdgeStyle;rounded=0;orthogonalLoop=1;jettySize=auto;html=1;entryX=0;entryY=0.5;entryDx=0;entryDy=0;strokeColor=#000000;fontColor=#0000FF;" edge="1" parent="1" source="qDUP6opVr65xL8gxLoUw-17" target="qDUP6opVr65xL8gxLoUw-23">
          <mxGeometry relative="1" as="geometry" />
        </mxCell>
        <mxCell id="qDUP6opVr65xL8gxLoUw-17" value="Instancia uma nova conexão" style="text;html=1;strokeColor=#d6b656;fillColor=#fff2cc;align=center;verticalAlign=middle;whiteSpace=wrap;rounded=0;" vertex="1" parent="1">
          <mxGeometry x="420" y="230" width="100" height="40" as="geometry" />
        </mxCell>
        <mxCell id="qDUP6opVr65xL8gxLoUw-18" value="recupera conexão" style="text;html=1;strokeColor=#d6b656;fillColor=#fff2cc;align=center;verticalAlign=middle;whiteSpace=wrap;rounded=0;" vertex="1" parent="1">
          <mxGeometry x="50" y="330" width="60" height="30" as="geometry" />
        </mxCell>
        <mxCell id="qDUP6opVr65xL8gxLoUw-21" style="edgeStyle=orthogonalEdgeStyle;rounded=0;orthogonalLoop=1;jettySize=auto;html=1;entryX=0.4;entryY=0.015;entryDx=0;entryDy=0;entryPerimeter=0;strokeColor=#000000;fontColor=#0000FF;" edge="1" parent="1" source="qDUP6opVr65xL8gxLoUw-20" target="qDUP6opVr65xL8gxLoUw-17">
          <mxGeometry relative="1" as="geometry" />
        </mxCell>
        <mxCell id="qDUP6opVr65xL8gxLoUw-20" value="TestaConexao" style="rounded=1;whiteSpace=wrap;html=1;fillColor=#f8cecc;strokeColor=#b85450;" vertex="1" parent="1">
          <mxGeometry x="470" y="120" width="120" height="60" as="geometry" />
        </mxCell>
        <mxCell id="qDUP6opVr65xL8gxLoUw-30" style="edgeStyle=orthogonalEdgeStyle;rounded=0;orthogonalLoop=1;jettySize=auto;html=1;strokeColor=#000000;fontColor=#0000FF;" edge="1" parent="1" source="qDUP6opVr65xL8gxLoUw-23" target="qDUP6opVr65xL8gxLoUw-24">
          <mxGeometry relative="1" as="geometry" />
        </mxCell>
        <mxCell id="qDUP6opVr65xL8gxLoUw-23" value="Connection" style="rounded=1;whiteSpace=wrap;html=1;" vertex="1" parent="1">
          <mxGeometry x="590" y="230" width="90" height="40" as="geometry" />
        </mxCell>
        <mxCell id="qDUP6opVr65xL8gxLoUw-24" value="guarda a conexão" style="text;html=1;strokeColor=#6c8ebf;fillColor=#dae8fc;align=center;verticalAlign=middle;whiteSpace=wrap;rounded=0;" vertex="1" parent="1">
          <mxGeometry x="605" y="290" width="60" height="30" as="geometry" />
        </mxCell>
        <mxCell id="qDUP6opVr65xL8gxLoUw-33" style="edgeStyle=orthogonalEdgeStyle;rounded=0;orthogonalLoop=1;jettySize=auto;html=1;entryX=0.5;entryY=0;entryDx=0;entryDy=0;strokeColor=#000000;fontColor=#0000FF;" edge="1" parent="1" source="qDUP6opVr65xL8gxLoUw-31" target="qDUP6opVr65xL8gxLoUw-32">
          <mxGeometry relative="1" as="geometry" />
        </mxCell>
        <mxCell id="qDUP6opVr65xL8gxLoUw-39" style="edgeStyle=orthogonalEdgeStyle;rounded=0;orthogonalLoop=1;jettySize=auto;html=1;strokeColor=#000000;fontColor=#0000FF;" edge="1" parent="1" source="qDUP6opVr65xL8gxLoUw-31" target="qDUP6opVr65xL8gxLoUw-38">
          <mxGeometry relative="1" as="geometry" />
        </mxCell>
        <mxCell id="qDUP6opVr65xL8gxLoUw-31" value="TestaInsercao" style="rounded=1;whiteSpace=wrap;html=1;fillColor=#f8cecc;strokeColor=#b85450;" vertex="1" parent="1">
          <mxGeometry x="320" y="360" width="120" height="60" as="geometry" />
        </mxCell>
        <mxCell id="qDUP6opVr65xL8gxLoUw-37" style="edgeStyle=orthogonalEdgeStyle;rounded=0;orthogonalLoop=1;jettySize=auto;html=1;entryX=0;entryY=0.5;entryDx=0;entryDy=0;strokeColor=#000000;fontColor=#0000FF;" edge="1" parent="1" source="qDUP6opVr65xL8gxLoUw-32" target="qDUP6opVr65xL8gxLoUw-35">
          <mxGeometry relative="1" as="geometry" />
        </mxCell>
        <mxCell id="qDUP6opVr65xL8gxLoUw-32" value="Instancia uma nova conexão" style="text;html=1;strokeColor=#d6b656;fillColor=#fff2cc;align=center;verticalAlign=middle;whiteSpace=wrap;rounded=0;" vertex="1" parent="1">
          <mxGeometry x="250" y="460" width="100" height="40" as="geometry" />
        </mxCell>
        <mxCell id="qDUP6opVr65xL8gxLoUw-34" style="edgeStyle=orthogonalEdgeStyle;rounded=0;orthogonalLoop=1;jettySize=auto;html=1;strokeColor=#000000;fontColor=#0000FF;" edge="1" parent="1" source="qDUP6opVr65xL8gxLoUw-35" target="qDUP6opVr65xL8gxLoUw-36">
          <mxGeometry relative="1" as="geometry" />
        </mxCell>
        <mxCell id="qDUP6opVr65xL8gxLoUw-35" value="Connection" style="rounded=1;whiteSpace=wrap;html=1;" vertex="1" parent="1">
          <mxGeometry x="450" y="460" width="90" height="40" as="geometry" />
        </mxCell>
        <mxCell id="qDUP6opVr65xL8gxLoUw-36" value="guarda a conexão" style="text;html=1;strokeColor=#6c8ebf;fillColor=#dae8fc;align=center;verticalAlign=middle;whiteSpace=wrap;rounded=0;" vertex="1" parent="1">
          <mxGeometry x="465" y="530" width="60" height="30" as="geometry" />
        </mxCell>
        <mxCell id="qDUP6opVr65xL8gxLoUw-41" style="edgeStyle=orthogonalEdgeStyle;rounded=0;orthogonalLoop=1;jettySize=auto;html=1;strokeColor=#000000;fontColor=#0000FF;" edge="1" parent="1" source="qDUP6opVr65xL8gxLoUw-38" target="qDUP6opVr65xL8gxLoUw-40">
          <mxGeometry relative="1" as="geometry" />
        </mxCell>
        <mxCell id="qDUP6opVr65xL8gxLoUw-38" value="&lt;font color=&quot;#000000&quot;&gt;connection.prepareStatement&lt;/font&gt;" style="rounded=1;whiteSpace=wrap;html=1;fontColor=#0000FF;" vertex="1" parent="1">
          <mxGeometry x="60" y="455" width="170" height="45" as="geometry" />
        </mxCell>
        <mxCell id="qDUP6opVr65xL8gxLoUw-43" style="edgeStyle=orthogonalEdgeStyle;rounded=0;orthogonalLoop=1;jettySize=auto;html=1;entryX=0.5;entryY=0;entryDx=0;entryDy=0;strokeColor=#000000;fontColor=#000000;" edge="1" parent="1" source="qDUP6opVr65xL8gxLoUw-40" target="qDUP6opVr65xL8gxLoUw-42">
          <mxGeometry relative="1" as="geometry" />
        </mxCell>
        <mxCell id="qDUP6opVr65xL8gxLoUw-40" value="prepara a declaração&amp;nbsp;" style="text;html=1;strokeColor=#d6b656;fillColor=#fff2cc;align=center;verticalAlign=middle;whiteSpace=wrap;rounded=0;" vertex="1" parent="1">
          <mxGeometry x="107.5" y="540" width="75" height="40" as="geometry" />
        </mxCell>
        <mxCell id="qDUP6opVr65xL8gxLoUw-45" style="edgeStyle=orthogonalEdgeStyle;rounded=0;orthogonalLoop=1;jettySize=auto;html=1;strokeColor=#000000;fontColor=#000000;" edge="1" parent="1" source="qDUP6opVr65xL8gxLoUw-42" target="qDUP6opVr65xL8gxLoUw-44">
          <mxGeometry relative="1" as="geometry" />
        </mxCell>
        <mxCell id="qDUP6opVr65xL8gxLoUw-48" style="edgeStyle=orthogonalEdgeStyle;rounded=0;orthogonalLoop=1;jettySize=auto;html=1;strokeColor=#000000;fontColor=#000000;" edge="1" parent="1" source="qDUP6opVr65xL8gxLoUw-42" target="qDUP6opVr65xL8gxLoUw-46">
          <mxGeometry relative="1" as="geometry" />
        </mxCell>
        <mxCell id="qDUP6opVr65xL8gxLoUw-42" value="&lt;font color=&quot;#000000&quot;&gt;PreparedStatement stm = ...&lt;/font&gt;" style="rounded=1;whiteSpace=wrap;html=1;fontColor=#0000FF;" vertex="1" parent="1">
          <mxGeometry x="60" y="620" width="170" height="45" as="geometry" />
        </mxCell>
        <mxCell id="qDUP6opVr65xL8gxLoUw-44" value="salva a declaração" style="text;html=1;strokeColor=#d6b656;fillColor=#fff2cc;align=center;verticalAlign=middle;whiteSpace=wrap;rounded=0;" vertex="1" parent="1">
          <mxGeometry x="290" y="622.5" width="75" height="40" as="geometry" />
        </mxCell>
        <mxCell id="qDUP6opVr65xL8gxLoUw-52" style="edgeStyle=orthogonalEdgeStyle;rounded=0;orthogonalLoop=1;jettySize=auto;html=1;entryX=0;entryY=0.5;entryDx=0;entryDy=0;strokeColor=#000000;fontColor=#000000;" edge="1" parent="1" source="qDUP6opVr65xL8gxLoUw-46" target="qDUP6opVr65xL8gxLoUw-51">
          <mxGeometry relative="1" as="geometry" />
        </mxCell>
        <mxCell id="qDUP6opVr65xL8gxLoUw-46" value="&lt;font color=&quot;#000000&quot;&gt;stm.execute&lt;/font&gt;" style="rounded=1;whiteSpace=wrap;html=1;fontColor=#0000FF;" vertex="1" parent="1">
          <mxGeometry x="85" y="710" width="120" height="45" as="geometry" />
        </mxCell>
        <mxCell id="qDUP6opVr65xL8gxLoUw-50" style="edgeStyle=orthogonalEdgeStyle;rounded=0;orthogonalLoop=1;jettySize=auto;html=1;exitX=0.5;exitY=1;exitDx=0;exitDy=0;strokeColor=#000000;fontColor=#000000;" edge="1" parent="1">
          <mxGeometry relative="1" as="geometry">
            <mxPoint x="340" y="751" as="sourcePoint" />
            <mxPoint x="340" y="751" as="targetPoint" />
          </mxGeometry>
        </mxCell>
        <mxCell id="qDUP6opVr65xL8gxLoUw-51" value="executa a declaração" style="text;html=1;strokeColor=#d6b656;fillColor=#fff2cc;align=center;verticalAlign=middle;whiteSpace=wrap;rounded=0;" vertex="1" parent="1">
          <mxGeometry x="290" y="712.5" width="75" height="40" as="geometry" />
        </mxCell>
        <mxCell id="qDUP6opVr65xL8gxLoUw-53" value="&lt;font color=&quot;#000000&quot;&gt;ResultSet rst = stm...&lt;/font&gt;" style="rounded=1;whiteSpace=wrap;html=1;fontColor=#0000FF;" vertex="1" parent="1">
          <mxGeometry x="570" y="635" width="140" height="45" as="geometry" />
        </mxCell>
        <mxCell id="qDUP6opVr65xL8gxLoUw-63" style="edgeStyle=orthogonalEdgeStyle;rounded=0;orthogonalLoop=1;jettySize=auto;html=1;entryX=0.5;entryY=1;entryDx=0;entryDy=0;strokeColor=#000000;fontColor=#000000;" edge="1" parent="1" source="qDUP6opVr65xL8gxLoUw-54" target="qDUP6opVr65xL8gxLoUw-53">
          <mxGeometry relative="1" as="geometry" />
        </mxCell>
        <mxCell id="qDUP6opVr65xL8gxLoUw-54" value="resgata o resultado" style="text;html=1;strokeColor=#d6b656;fillColor=#fff2cc;align=center;verticalAlign=middle;whiteSpace=wrap;rounded=0;" vertex="1" parent="1">
          <mxGeometry x="500" y="740" width="75" height="40" as="geometry" />
        </mxCell>
        <mxCell id="qDUP6opVr65xL8gxLoUw-57" value="stm.getResultSet" style="rounded=1;whiteSpace=wrap;html=1;fontColor=#000000;" vertex="1" parent="1">
          <mxGeometry x="380" y="655" width="120" height="20" as="geometry" />
        </mxCell>
        <mxCell id="qDUP6opVr65xL8gxLoUw-59" value="" style="edgeStyle=orthogonalEdgeStyle;rounded=0;orthogonalLoop=1;jettySize=auto;html=1;strokeColor=#000000;fontColor=#000000;" edge="1" parent="1" source="qDUP6opVr65xL8gxLoUw-58" target="qDUP6opVr65xL8gxLoUw-54">
          <mxGeometry relative="1" as="geometry" />
        </mxCell>
        <mxCell id="qDUP6opVr65xL8gxLoUw-58" value="stm.getGenerateKeys" style="rounded=1;whiteSpace=wrap;html=1;fontColor=#000000;" vertex="1" parent="1">
          <mxGeometry x="380" y="680" width="130" height="20" as="geometry" />
        </mxCell>
      </root>
    </mxGraphModel>
  </diagram>
</mxfile>
